<svg width="20" height="20" viewBox="0 0 20 20" fill="none" xmlns="http://www.w3.org/2000/svg">
<g clip-path="url(#clip0)">
<path d="M11.4955 17.3867L10.5044 18.2539C10.0848 18.6211 9.40622 18.6211 8.99105 18.2539L0.312474 10.6641C-0.107169 10.2969 -0.107169 9.70313 0.312474 9.33984L8.99105 1.74609C9.41069 1.37891 10.0893 1.37891 10.5044 1.74609L11.4955 2.61328C11.9196 2.98438 11.9107 3.58984 11.4777 3.95312L6.09819 8.4375H18.9285C19.5223 8.4375 20 8.85547 20 9.375V10.625C20 11.1445 19.5223 11.5625 18.9285 11.5625H6.09819L11.4777 16.0469C11.9152 16.4102 11.9241 17.0156 11.4955 17.3867Z" fill="black"/>
</g>
<defs>
<clipPath id="clip0">
<rect width="20" height="20" fill="white"/>
</clipPath>
</defs>
</svg>
